<svg id="Composant_36_2" data-name="Composant 36 – 2" xmlns="http://www.w3.org/2000/svg" xmlns:xlink="http://www.w3.org/1999/xlink" width="349" height="435" viewBox="0 0 349 435">
  <defs>
    <clipPath id="clip-path">
      <rect id="Rectangle_1577" data-name="Rectangle 1577" width="349" height="435" transform="translate(696 164)" fill="#fff" stroke="#707070" stroke-width="1"/>
    </clipPath>
  </defs>
  <g id="Groupe_de_masques_6" data-name="Groupe de masques 6" transform="translate(-696 -164)" clip-path="url(#clip-path)">
    <g id="undraw_education_f8ru" transform="translate(696 255.014)">
      <path id="Tracé_1652" data-name="Tracé 1652" d="M329.352,274.248v60.981H176.571c-17.407,0-31.57-13.678-31.57-30.491s14.163-30.491,31.57-30.491Z" transform="translate(-106.952 -84.603)" fill="#f2f2f2"/>
      <path id="Tracé_1653" data-name="Tracé 1653" d="M333.1,334.76a2.346,2.346,0,0,1-2.345,2.345H173.85a32.132,32.132,0,1,1,0-64.265H330.759a2.345,2.345,0,1,1,0,4.691H173.85a27.442,27.442,0,0,0,0,54.883H330.759A2.346,2.346,0,0,1,333.1,334.76Z" transform="translate(-106.952 -84.603)" fill="#495867"/>
      <path id="Tracé_1654" data-name="Tracé 1654" d="M329.352,288.32H165.172a.469.469,0,0,1,0-.938h164.18a.469.469,0,0,1,0,.938Z" transform="translate(-106.952 -84.603)" fill="#ccc"/>
      <path id="Tracé_1655" data-name="Tracé 1655" d="M329.352,299.578H165.172a.469.469,0,0,1,0-.938h164.18a.469.469,0,0,1,0,.938Z" transform="translate(-106.952 -84.603)" fill="#ccc"/>
      <path id="Tracé_1656" data-name="Tracé 1656" d="M329.352,310.837H165.172a.469.469,0,0,1,0-.938h164.18a.469.469,0,0,1,0,.938Z" transform="translate(-106.952 -84.603)" fill="#ccc"/>
      <path id="Tracé_1657" data-name="Tracé 1657" d="M329.352,322.095H165.172a.469.469,0,0,1,0-.938h164.18a.469.469,0,0,1,0,.938Z" transform="translate(-106.952 -84.603)" fill="#ccc"/>
      <path id="Tracé_1658" data-name="Tracé 1658" d="M447.429,285.727l-38.261,47.485L290.2,237.354c-13.555-10.922-16-30.459-5.453-43.55s30.159-14.856,43.713-3.935Z" transform="translate(-106.952 -84.603)" fill="#f2f2f2"/>
      <path id="Tracé_1659" data-name="Tracé 1659" d="M412.385,335.2a2.346,2.346,0,0,1-3.3.355L286.9,237.108a32.132,32.132,0,1,1,40.321-50.042l122.182,98.448a2.345,2.345,0,0,1-2.943,3.653L324.282,190.719a27.442,27.442,0,0,0-34.435,42.736L412.03,331.9a2.346,2.346,0,0,1,.355,3.3Z" transform="translate(-106.952 -84.603)" fill="#ccc"/>
      <path id="Tracé_1660" data-name="Tracé 1660" d="M438.6,296.685,310.756,193.675a.469.469,0,1,1,.589-.731l127.844,103.01a.469.469,0,1,1-.589.731Z" transform="translate(-106.952 -84.603)" fill="#ccc"/>
      <path id="Tracé_1661" data-name="Tracé 1661" d="M431.536,305.451,303.692,202.441a.469.469,0,1,1,.589-.731l127.844,103.01a.469.469,0,1,1-.589.731Z" transform="translate(-106.952 -84.603)" fill="#ccc"/>
      <path id="Tracé_1662" data-name="Tracé 1662" d="M424.473,314.218,296.629,211.208a.469.469,0,0,1,.589-.731l127.844,103.01a.469.469,0,1,1-.589.731Z" transform="translate(-106.952 -84.603)" fill="#ccc"/>
      <path id="Tracé_1663" data-name="Tracé 1663" d="M417.409,322.984,289.565,219.974a.469.469,0,0,1,.589-.731L418,322.254a.469.469,0,0,1-.589.731Z" transform="translate(-106.952 -84.603)" fill="#ccc"/>
      <path id="Tracé_1664" data-name="Tracé 1664" d="M455.483,337.574H107.421a.469.469,0,0,1,0-.938H455.483a.469.469,0,1,1,0,.938Z" transform="translate(-106.952 -84.603)" fill="#ccc"/>
      <path id="Tracé_1665" data-name="Tracé 1665" d="M158.589,183.235h-5.363l-2.55-20.685h7.915Z" fill="#ffb8b8"/>
      <path id="Tracé_1666" data-name="Tracé 1666" d="M149.4,181.7h10.342v6.512H142.884A6.512,6.512,0,0,1,149.4,181.7Z" fill="#2f2e41"/>
      <path id="Tracé_1667" data-name="Tracé 1667" d="M103.8,183.235H98.44l-2.55-20.685H103.8Z" fill="#ffb8b8"/>
      <path id="Tracé_1668" data-name="Tracé 1668" d="M94.609,181.7h10.342v6.512H88.1a6.512,6.512,0,0,1,6.512-6.512Z" fill="#2f2e41"/>
      <path id="Tracé_1669" data-name="Tracé 1669" d="M228.666,114.405V112.06a15.128,15.128,0,0,1,15.128-15.128h0a15.128,15.128,0,0,1,15.128,15.128v2.345a10.906,10.906,0,0,1-10.906,10.906h-8.444a10.906,10.906,0,0,1-10.906-10.906Z" transform="translate(-106.952 -84.603)" fill="#2f2e41"/>
      <circle id="Ellipse_258" data-name="Ellipse 258" cx="11.521" cy="11.521" r="11.521" transform="translate(125.321 18.473)" fill="#ffb8b8"/>
      <path id="Tracé_1670" data-name="Tracé 1670" d="M297.629,176.6" transform="translate(-106.952 -84.603)" fill="#ffb8b8"/>
      <path id="Tracé_1671" data-name="Tracé 1671" d="M181.126,154.195a4.4,4.4,0,0,1,6.7.787l9.876-1.868,2.6,5.725-13.984,2.442a4.422,4.422,0,0,1-5.19-7.086Z" transform="translate(-106.952 -84.603)" fill="#ffb8b8"/>
      <path id="Tracé_1672" data-name="Tracé 1672" d="M234.812,133.374l.129.2-16.2,10.669-27.328,8.727a1.645,1.645,0,0,0-1.131,1.754l.6,5.135a1.642,1.642,0,0,0,1.975,1.416l25.72-5.513a9.291,9.291,0,0,0,3.458-1.522l18.195-12.946a4.679,4.679,0,0,0-5.289-7.719Z" transform="translate(-106.952 -84.603)" fill="#ccc"/>
      <path id="Tracé_1673" data-name="Tracé 1673" d="M260.274,261.969a2.12,2.12,0,0,1-1.941-1.267l-24.585-60.747a.7.7,0,0,0-1.317.074l-20.057,59.139a2.111,2.111,0,0,1-2.759,1.356L202.889,258a2.106,2.106,0,0,1-1.359-1.738C198.5,229.9,224.89,163.371,225.157,162.7l.074-.185,24.053,5.321.05.055c9.6,10.469,17.484,76.5,18.968,89.63a2.1,2.1,0,0,1-1.394,2.227l-5.937,2.1a2.091,2.091,0,0,1-.7.12Z" transform="translate(-106.952 -84.603)" fill="#2f2e41"/>
      <path id="Tracé_1674" data-name="Tracé 1674" d="M239.55,169.979c-5.828,0-12.325-1.162-14.325-5.958l-.046-.11.062-.1c1.579-2.59,3.665-7.008,2.544-7.838-2.209-1.633-3.281-4.32-3.186-7.986A19.242,19.242,0,0,1,238.092,130.4h0a59.884,59.884,0,0,1,6.69-1.723,11.39,11.39,0,0,1,9.444,2.332,11.5,11.5,0,0,1,4.267,8.852c.082,8.5-1.227,20.35-7.933,28.483a2.086,2.086,0,0,1-1.235.718,57.332,57.332,0,0,1-9.775.914Z" transform="translate(-106.952 -84.603)" fill="#ccc"/>
      <path id="Tracé_1675" data-name="Tracé 1675" d="M237.381,169.661a4.483,4.483,0,0,1,5.478-3.126,4.412,4.412,0,0,1,.679.252l7.5-6.825,5.215,3.514-10.724,9.49a4.475,4.475,0,0,1-5.072,2.152,4.407,4.407,0,0,1-3.075-5.456Z" transform="translate(-106.952 -84.603)" fill="#ffb8b8"/>
      <path id="Tracé_1676" data-name="Tracé 1676" d="M249.85,169.748a2.105,2.105,0,0,1-1.335-.476l-2.957-2.417a2.111,2.111,0,0,1,.051-3.309l12.4-9.513a.705.705,0,0,0,.133-.983l-7.656-10.121a6.232,6.232,0,0,1,.416-8.028h0a6.214,6.214,0,0,1,8.391-.671l.048.051,7.994,11.447a7.127,7.127,0,0,1-.169,11.345l-16.064,12.261a2.114,2.114,0,0,1-1.256.414Z" transform="translate(-106.952 -84.603)" fill="#ccc"/>
      <path id="Tracé_1677" data-name="Tracé 1677" d="M233.588,111.356V105.64l10.205-4.456,9.731,4.456v5.716a.938.938,0,0,1-.938.938h-18.06a.938.938,0,0,1-.938-.938Z" transform="translate(-106.952 -84.603)" fill="#2f2e41"/>
      <path id="Tracé_1678" data-name="Tracé 1678" d="M243.325,97.69c-1.5-4.8,1.651-10.307,6.31-12.208s10.232-.572,14.163,2.569,6.37,7.845,7.662,12.708,1.538,9.934,1.776,14.96c5.724,1.051,9.618,7.84,7.635,13.312s-9.322,8.19-14.391,5.33-6.537-10.547-2.879-15.073a12.372,12.372,0,0,0-14.4-19.19C246.386,101.277,242.847,98.212,243.325,97.69Z" transform="translate(-106.952 -84.603)" fill="#2f2e41"/>
      <circle id="Ellipse_259" data-name="Ellipse 259" cx="2.815" cy="2.815" r="2.815" transform="translate(51.653 38.599)" fill="#3f3d56"/>
      <path id="Tracé_1679" data-name="Tracé 1679" d="M209.665,103.495l-29.727,12.712a1.876,1.876,0,0,1-1.467,0L148.34,103.5a1.841,1.841,0,0,1-.9-.789,1.875,1.875,0,0,0,.9,2.665l30.13,12.712a1.876,1.876,0,0,0,1.467,0l29.727-12.712a1.875,1.875,0,0,0,.889-2.661,1.842,1.842,0,0,1-.889.785Z" transform="translate(-106.952 -84.603)" opacity="0.2"/>
      <path id="Tracé_1680" data-name="Tracé 1680" d="M161.655,126.006a.469.469,0,0,0,.469-.469v-15.7L177.6,104.2a.469.469,0,0,0,.014-.938L162.139,108.9a.92.92,0,0,0-.672.27.932.932,0,0,0-.28.668v15.7A.469.469,0,0,0,161.655,126.006Z" transform="translate(-106.952 -84.603)" fill="#3f3d56"/>
    </g>
  </g>
</svg>
