<svg xmlns="http://www.w3.org/2000/svg" width="431.68" height="456.248" viewBox="0 0 431.68 456.248">
  <g id="Groupe_2071" data-name="Groupe 2071" transform="translate(-760.095 -565.382)">
    <path id="Tracé_1735" data-name="Tracé 1735" d="M638.405,705.815c-.73-.79-1.46-1.58-2.17-2.38a122.83,122.83,0,0,1-16.39-22.95,97.252,97.252,0,0,1-10.22-28.63c-3.74-19.93-1.07-40.83,10.12-57.43q.42-.63.87-1.26c.14.52.29,1.03.45,1.55a135.4,135.4,0,0,0,7.79,20.51c.23.52.48,1.03.74,1.54a142.158,142.158,0,0,0,31.24,42.01q4.395,4.065,9.11,7.73v.01q3.645,2.805,7.46,5.38c10.68,7.18,23.31,14.06,27.02,26.38a24.043,24.043,0,0,1,.95,5.16,23.658,23.658,0,0,1,.07,2.38Z" transform="translate(171.385 315.815)" fill="#e6e6e6"/>
    <path id="Tracé_1736" data-name="Tracé 1736" d="M685.625,705.815h-1.36c-.01-.15-.04-.31-.06-.46q-.15-.975-.36-1.92c-1.11-4.9-3.61-9.42-8.12-11.99a21.974,21.974,0,0,0-4.71-1.95c-3.23-.98-6.65-1.42-9.93-2.08-.85-.17-1.69-.37-2.51-.59a30.416,30.416,0,0,1-11.55-5.63,48.141,48.141,0,0,1-10.47-12.44,104.632,104.632,0,0,1-5.04-9.18c-.21-.41-.41-.81-.6-1.22a122.894,122.894,0,0,1-8.25-23.51,120.123,120.123,0,0,1-2.36-12.61,122.591,122.591,0,0,1-.56-27.81c.03-.42.08-.84.12-1.26.09-.87,1.41-.56,1.32.3-.04.42-.08.83-.12,1.25a120.534,120.534,0,0,0,.48,26.71c.05.45.11.89.18,1.34a119.9,119.9,0,0,0,10.64,35.43c.05.12.11.23.16.35.01.01.01.01.01.02q1.89,3.9,4.07,7.64a52.186,52.186,0,0,0,10.01,12.87,28.966,28.966,0,0,0,11.75,6.3c.43.12.87.24,1.31.34.35.09.7.17,1.06.24,3.34.71,6.8,1.16,10.11,2.08a26.817,26.817,0,0,1,4.38,1.62,18.305,18.305,0,0,1,9.45,11.58c.22.73.4,1.46.55,2.2A24.1,24.1,0,0,1,685.625,705.815Z" transform="translate(171.385 315.815)" fill="#fff"/>
    <path id="Tracé_1737" data-name="Tracé 1737" d="M632.111,659.349a18.132,18.132,0,0,1-22.3-7.333c-.451-.744.683-1.481,1.135-.736a16.79,16.79,0,0,0,20.761,6.779C632.508,657.727,632.911,659.019,632.111,659.349Z" transform="translate(171.385 315.815)" fill="#fff"/>
    <path id="Tracé_1738" data-name="Tracé 1738" d="M658.2,685.764a34.948,34.948,0,0,0,.885-25.453c-.29-.821,1-1.228,1.29-.407a36.351,36.351,0,0,1-.975,26.484C659.051,687.188,657.853,686.559,658.2,685.764Z" transform="translate(171.385 315.815)" fill="#fff"/>
    <path id="Tracé_1739" data-name="Tracé 1739" d="M621.128,621.516a10.263,10.263,0,0,0,7.6-6.089c.338-.8,1.536-.174,1.2.624a11.5,11.5,0,0,1-8.393,6.755.7.7,0,0,1-.849-.441.68.68,0,0,1,.441-.848Z" transform="translate(171.385 315.815)" fill="#fff"/>
    <path id="Tracé_1740" data-name="Tracé 1740" d="M729.115,705.815h-55.11c-.19-.79-.37-1.58-.54-2.38-1.01-4.62-1.84-9.27-2.45-13.94-.06-.48-.13-.97-.17-1.46a131.24,131.24,0,0,1-.9-21.52v-.01a116.083,116.083,0,0,1,1.1-11.75,96.97,96.97,0,0,1,9.06-28.97l.06-.12c9.02-18.13,23.72-33.17,42.62-39.68.49-.17.96-.33,1.45-.49-.19.5-.38,1-.57,1.51,0,.01-.01.02-.01.03a135.9,135.9,0,0,0-6.13,21.04v.01c-.12.55-.23,1.11-.34,1.67a142.564,142.564,0,0,0-.32,52.46c.01.03.01.06.02.09a138.961,138.961,0,0,0,5.3,20.25c2.34,6.79,5.23,13.86,6.55,20.88C728.885,704.235,729.015,705.025,729.115,705.815Z" transform="translate(171.385 315.815)" fill="#e6e6e6"/>
    <path id="Tracé_1741" data-name="Tracé 1741" d="M724.515,586.075c-.29.31-.57.62-.85.93a120.7,120.7,0,0,0-15.7,21.62c-.23.38-.45.78-.66,1.17a119.883,119.883,0,0,0-12.84,34.69c-.03.13-.06.26-.08.4q-.84,4.245-1.35,8.55a51.875,51.875,0,0,0,.24,16.31,29.013,29.013,0,0,0,5.59,12.1c.26.36.54.72.83,1.07.23.28.47.55.71.83,3.27,3.75,7.04,7.2,9.34,11.68a17.122,17.122,0,0,1,1.89,8.01,19.047,19.047,0,0,1-.17,2.38H710.1a17.23,17.23,0,0,0,.2-2.38,15.141,15.141,0,0,0-1.23-6.29c-2.03-4.7-5.92-8.27-9.26-12.03-.58-.65-1.13-1.32-1.66-1.99a30.283,30.283,0,0,1-5.82-11.44,48.421,48.421,0,0,1-.87-16.24c.33-3.47.83-6.93,1.5-10.36.08-.45.17-.9.26-1.34a123.511,123.511,0,0,1,29.57-57.76c.28-.31.57-.63.86-.94C724.235,584.415,725.1,585.445,724.515,586.075Z" transform="translate(171.385 315.815)" fill="#fff"/>
    <path id="Tracé_1742" data-name="Tracé 1742" d="M693.571,645.264a18.132,18.132,0,0,1-13.394-19.284c.087-.866,1.437-.771,1.349.1a16.79,16.79,0,0,0,12.5,17.912c.842.219.386,1.493-.451,1.275Z" transform="translate(171.385 315.815)" fill="#fff"/>
    <path id="Tracé_1743" data-name="Tracé 1743" d="M698.5,682.062a34.947,34.947,0,0,0,16.031-19.79c.263-.83,1.538-.378,1.275.451a36.351,36.351,0,0,1-16.724,20.559c-.759.429-1.338-.794-.582-1.221Z" transform="translate(171.385 315.815)" fill="#fff"/>
    <path id="Tracé_1744" data-name="Tracé 1744" d="M707.579,608.444a10.263,10.263,0,0,0,9.734-.286c.754-.438,1.331.785.583,1.221a11.5,11.5,0,0,1-10.768.341.7.7,0,0,1-.412-.863.68.68,0,0,1,.863-.412Z" transform="translate(171.385 315.815)" fill="#fff"/>
    <path id="Tracé_1774" data-name="Tracé 1774" d="M744.75,475.221a9.467,9.467,0,0,0,4.1-13.925L769.2,434.507l-17.444-1.165L735.109,458.96a9.518,9.518,0,0,0,9.641,16.261Z" transform="translate(171.385 315.815)" fill="#ffb8b8"/>
    <path id="e1bf2fad-858c-4bea-9733-320cc40b59f5" d="M802.389,331.264,799,329.948l-3.269,1.155s-10.223,9.742-11.934,19.956c-.766,4.57-12.677,49.255-12.677,49.255l-31.735,48.67,17.17,11.468,43.767-65.578Z" transform="translate(171.385 315.815)" fill="#e6e6e6"/>
    <g id="Groupe_2070" data-name="Groupe 2070">
      <path id="Tracé_1745" data-name="Tracé 1745" d="M1020.39,704.625a1.186,1.186,0,0,1-1.19,1.19H589.9a1.19,1.19,0,1,1,0-2.38h429.3a1.186,1.186,0,0,1,1.19,1.19Z" transform="translate(171.385 315.815)" fill="#ccc"/>
      <path id="Tracé_1768" data-name="Tracé 1768" d="M843.565,498.967a10.056,10.056,0,0,1,2.728-15.176l-6.582-35.123,17.12,7.193,3.626,32.251a10.11,10.11,0,0,1-16.892,10.856Z" transform="translate(171.385 315.815)" fill="#ffb6b6"/>
      <path id="Tracé_1769" data-name="Tracé 1769" d="M643.926,497.887h-12.26L625.834,450.6h18.094Z" transform="translate(351 510)" fill="#ffb6b6"/>
      <path id="Tracé_1770" data-name="Tracé 1770" d="M825.11,571.175s7.458-45.674,14.458-57.674,4.762-40.335,4.762-40.335L837.5,472.6a9.524,9.524,0,0,0-.444-3.372c-3.492-9.728-52.157-6.274-52.157-6.274s-18.19,28.562-11.763,54.054S786.568,591.5,786.568,591.5l21.047,80.184,18-1-1.914-45.33.511.166Z" transform="translate(171.385 315.815)" fill="#2f2e41"/>
      <path id="Tracé_1771" data-name="Tracé 1771" d="M853.068,336,834.84,314.786l-29.26-.85-11.19,17.99-2.775,19.76L777.4,469.23s46.565,22.319,71.616,11.545L861.067,380C866.068,360,853.068,336,853.068,336Z" transform="translate(171.385 315.815)" fill="#e6e6e6"/>
      <circle id="Ellipse_272" data-name="Ellipse 272" cx="25.37" cy="25.37" r="25.37" transform="translate(967.61 572.357)" fill="#ffb6b6"/>
      <path id="Tracé_1772" data-name="Tracé 1772" d="M852.164,276.14c-.779-5.57-4.551-10.858-9.916-12.546-2.131-6.189-7.776-10.745-14.013-12.731a27.372,27.372,0,0,0-31.467,11.477c-.477.75-1.945,2.594-1.9,3.49.052,1.137,1.792,2.312,2.666,3.029a39.081,39.081,0,0,0,6.97,4.3c9.123,4.73,6.086,12.162,5.962,20.585-.06,4.093,1.306,7.588,4.8,9.926,5.037,3.374,12.246,2.032,17.727.678,6.219-1.537,11.389-7,14.936-12.268C851.064,287.417,852.943,281.71,852.164,276.14Z" transform="translate(171.385 315.815)" fill="#2f2e41"/>
      <path id="Tracé_1773" data-name="Tracé 1773" d="M672.725,174.846,682.6,283.129l-31.716-1.7Z" transform="translate(351 510)" fill="#e6e6e6"/>
      <path id="Tracé_1775" data-name="Tracé 1775" d="M826.047,688.479h-3.536l-13.8-5.613-7.4,5.613h0a15.765,15.765,0,0,0-15.764,15.763v.513l40.5,0Z" transform="translate(171.385 315.815)" fill="#2f2e41"/>
      <path id="Tracé_1776" data-name="Tracé 1776" d="M702.629,451.775l-8.687,8.651-37.5-29.388,12.82-12.768Z" transform="translate(351 510)" fill="#ffb6b6"/>
      <path id="Tracé_1777" data-name="Tracé 1777" d="M879.178,640.759l-2.084,2.856-12.672,7.84.172,9.285h0a15.765,15.765,0,0,0,3.439,22.027l.414.3,23.879-32.714Z" transform="translate(171.385 315.815)" fill="#2f2e41"/>
      <path id="Tracé_1778" data-name="Tracé 1778" d="M637,379.5l57,59-16,14-44.795-35.185Z" transform="translate(351 510)" fill="#2f2e41"/>
    </g>
  </g>
</svg>
